<?xml version="1.0" encoding="utf-8"?>
<!-- Generator: Adobe Illustrator 16.0.0, SVG Export Plug-In . SVG Version: 6.00 Build 0)  -->
<!DOCTYPE svg PUBLIC "-//W3C//DTD SVG 1.1//EN" "http://www.w3.org/Graphics/SVG/1.1/DTD/svg11.dtd">
<svg version="1.1" id="Layer_1" xmlns="http://www.w3.org/2000/svg" xmlns:xlink="http://www.w3.org/1999/xlink" x="0px" y="0px"
	 width="200px" height="200px" viewBox="0 0 200 200" enable-background="new 0 0 200 200" xml:space="preserve">
<path fill-rule="evenodd" clip-rule="evenodd" fill="#ffffff" stroke-miterlimit="10" d="M99.783,199.566
	C44.763,199.566,0,154.803,0,99.782C0,44.762,44.763,0,99.783,0c55.02,0,99.781,44.762,99.781,99.782
	C199.564,154.803,154.803,199.566,99.783,199.566z M183.934,113.442c-2.916-0.92-26.379-7.921-53.089-3.644
	c11.149,30.635,15.686,55.582,16.559,60.768C166.523,157.637,180.136,137.157,183.934,113.442z M133.074,178.37
	c-1.267-7.478-6.216-33.538-18.181-64.634c-0.188,0.063-0.375,0.125-0.562,0.19c-48.072,16.751-65.329,50.089-66.862,53.225
	c14.451,11.27,32.612,17.992,52.314,17.992C111.59,185.144,122.843,182.729,133.074,178.37z M36.464,156.901
	c1.931-3.306,25.322-42.035,69.277-56.244c1.111-0.359,2.231-0.697,3.358-1.015c-2.138-4.841-4.469-9.688-6.909-14.463
	C59.628,97.917,18.326,97.385,14.597,97.308c-0.026,0.866-0.043,1.733-0.043,2.605C14.553,121.805,22.852,141.791,36.464,156.901z
	 M16.354,82.456c3.812,0.051,38.926,0.203,78.793-10.384C81.026,46.968,65.795,25.862,63.548,22.781
	C39.704,34.027,21.88,56.009,16.354,82.456z M79.81,17.052c2.356,3.154,17.836,24.234,31.801,49.895
	c30.307-11.359,43.137-28.604,44.67-30.788c-15.051-13.353-34.843-21.477-56.498-21.477C92.907,14.682,86.22,15.507,79.81,17.052z
	 M165.756,46.015c-1.798,2.431-16.079,20.74-47.591,33.605c1.981,4.06,3.885,8.189,5.654,12.345c0.626,1.473,1.237,2.94,1.836,4.399
	c28.359-3.566,56.536,2.148,59.347,2.743C184.813,78.99,177.626,60.518,165.756,46.015z"/>
</svg>
