<!DOCTYPE svg PUBLIC "-//W3C//DTD SVG 1.1//EN" "http://www.w3.org/Graphics/SVG/1.1/DTD/svg11.dtd">
<svg version="1.1" id="Layer_1" xmlns="http://www.w3.org/2000/svg" xmlns:xlink="http://www.w3.org/1999/xlink" x="0px" y="0px"
	 width="200px" height="200px" viewBox="0 0 200 200" enable-background="new 0 0 200 200" xml:space="preserve">
<g>
	<path fill-rule="evenodd" clip-rule="evenodd" fill="#FFFFFF" d="M99.64-0.568c-54.9,0-99.419,44.509-99.419,99.419
		c0,43.926,28.486,81.192,67.989,94.339c4.968,0.92,6.793-2.158,6.793-4.783c0-2.37-0.092-10.203-0.135-18.51
		c-27.659,6.015-33.495-11.73-33.495-11.73c-4.523-11.491-11.039-14.547-11.039-14.547c-9.021-6.171,0.68-6.044,0.68-6.044
		c9.982,0.701,15.24,10.246,15.24,10.246c8.867,15.198,23.258,10.805,28.932,8.264c0.893-6.424,3.468-10.812,6.312-13.294
		c-22.083-2.513-45.297-11.039-45.297-49.133c0-10.854,3.884-19.723,10.245-26.686c-1.032-2.505-4.436-12.616,0.963-26.311
		c0,0,8.349-2.67,27.346,10.192c7.931-2.204,16.436-3.308,24.885-3.347c8.449,0.039,16.96,1.143,24.906,3.347
		c18.977-12.863,27.312-10.192,27.312-10.192c5.412,13.695,2.009,23.806,0.977,26.311c6.374,6.962,10.231,15.832,10.231,26.686
		c0,38.186-23.258,46.593-45.396,49.054c3.565,3.085,6.743,9.136,6.743,18.41c0,13.303-0.114,24.009-0.114,27.284
		c0,2.646,1.789,5.746,6.828,4.771c39.48-13.161,67.932-50.415,67.932-94.326C199.059,43.941,154.547-0.568,99.64-0.568z"/>
	<path fill="#ffffff" d="M37.876,142.175c-0.219,0.495-0.997,0.644-1.704,0.304c-0.722-0.324-1.125-0.998-0.893-1.493
		c0.214-0.508,0.992-0.649,1.712-0.311C37.714,141,38.126,141.68,37.876,142.175L37.876,142.175z M36.653,141.269"/>
	<path fill="#ffffff" d="M41.904,146.667c-0.474,0.439-1.402,0.235-2.03-0.46c-0.651-0.692-0.772-1.62-0.291-2.065
		c0.489-0.439,1.387-0.233,2.039,0.46C42.272,145.302,42.399,146.222,41.904,146.667L41.904,146.667z M40.956,145.649"/>
	<path fill="#ffffff" d="M45.824,152.393c-0.609,0.424-1.606,0.027-2.222-0.857c-0.609-0.884-0.609-1.945,0.015-2.369
		c0.616-0.425,1.598-0.042,2.222,0.834C46.446,150.898,46.446,151.96,45.824,152.393L45.824,152.393z M45.824,152.393"/>
	<path fill="#ffffff" d="M51.194,157.925c-0.545,0.602-1.706,0.438-2.555-0.381c-0.87-0.801-1.111-1.939-0.566-2.541
		c0.553-0.601,1.721-0.432,2.576,0.382C51.512,156.186,51.774,157.33,51.194,157.925L51.194,157.925z M51.194,157.925"/>
	<path fill="#ffffff" d="M58.602,161.137c-0.241,0.778-1.358,1.132-2.484,0.801c-1.125-0.341-1.86-1.252-1.633-2.038
		c0.233-0.785,1.357-1.153,2.49-0.8C58.099,159.439,58.835,160.345,58.602,161.137L58.602,161.137z M58.602,161.137"/>
	<path fill="#ffffff" d="M66.739,161.731c0.027,0.82-0.928,1.5-2.109,1.515c-1.188,0.027-2.151-0.637-2.164-1.443
		c0-0.828,0.934-1.5,2.122-1.521C65.77,160.259,66.739,160.918,66.739,161.731L66.739,161.731z M66.739,161.731"/>
	<path fill="#ffffff" d="M74.31,160.444c0.142,0.799-0.68,1.62-1.854,1.839c-1.154,0.212-2.222-0.283-2.37-1.075
		c-0.143-0.82,0.693-1.642,1.846-1.854C73.107,159.149,74.161,159.631,74.31,160.444L74.31,160.444z M74.31,160.444"/>
</g>
</svg>
