<?xml version="1.0" encoding="utf-8"?>
<!-- Generator: Adobe Illustrator 16.0.0, SVG Export Plug-In . SVG Version: 6.00 Build 0)  -->
<!DOCTYPE svg PUBLIC "-//W3C//DTD SVG 1.1//EN" "http://www.w3.org/Graphics/SVG/1.1/DTD/svg11.dtd">
<svg version="1.1" id="Layer_1" xmlns="http://www.w3.org/2000/svg" xmlns:xlink="http://www.w3.org/1999/xlink" x="0px" y="0px"
	 width="200px" height="200px" viewBox="0 0 200 200" enable-background="new 0 0 200 200" xml:space="preserve">
<path fill="#FFFFFF"  d="M185.322,0H15.112C6.987,0,0.379,6.447,0.379,14.391v170.936c0,7.955,6.608,14.413,14.733,14.413h170.21
	c8.143,0,14.797-6.458,14.797-14.413V14.391C200.119,6.447,193.465,0,185.322,0z"/>
<path fill="#DDDCDC" d="M29.929,74.884h29.673v95.315H29.929V74.884z M44.773,27.5c9.484,0,17.183,7.697,17.183,17.17
	c0,9.483-7.698,17.181-17.183,17.181c-9.522,0-17.199-7.698-17.199-17.181C27.575,35.197,35.251,27.5,44.773,27.5"/>
<path fill="#DDDCDC" d="M78.202,74.884h28.416v13.022h0.406c3.953-7.495,13.631-15.396,28.052-15.396
	c29.995,0,35.542,19.737,35.542,45.407v52.282h-29.619v-46.348c0-11.056-0.214-25.275-15.407-25.275
	c-15.427,0-17.781,12.039-17.781,24.472v47.15H78.202V74.884z"/>
</svg>
